PathFileType	4	(X/Y/Z)	Patient4_TMGait_0pt7_01_left_09.trc.trc
DataRate	CameraRate	NumFrames	NumMarkers	Units	OrigDataRate	OrigDataStartFrame	OrigNumFrames
90.322580645161	90.322580645161	4	33	mm	90.322580645161	18	       141
Frame#	Time	Sacral			L.Shoulder			Chest			R.Shoulder			Neck			R.ASIS			L.ASIS			R.Thigh.Superior			R.Thigh.Lateral			R.Thigh.Inferior			R.Patella			L.Thigh.Superior			L.Thigh.Lateral			L.Thigh.Inferior			L.Patella			L.Shank.Superior			L.Shank.Lateral			L.Shank.Inferior			R.Shank.Superior			R.Shank.Lateral			R.Shank.Inferior			R.Heel			R.Midfoot.Superior			R.Midfoot.Lateral			R.Toe			L.Heel			L.Midfoot.Lateral			L.Midfoot.Superior			L.Toe			L.Elbow			L.Wrist			R.Elbow			R.Wrist			
		X1	Y1	Z1	X2	Y2	Z2	X3	Y3	Z3	X4	Y4	Z4	X5	Y5	Z5	X6	Y6	Z6	X7	Y7	Z7	X8	Y8	Z8	X9	Y9	Z9	X10	Y10	Z10	X11	Y11	Z11	X12	Y12	Z12	X13	Y13	Z13	X14	Y14	Z14	X15	Y15	Z15	X16	Y16	Z16	X17	Y17	Z17	X18	Y18	Z18	X19	Y19	Z19	X20	Y20	Z20	X21	Y21	Z21	X22	Y22	Z22	X23	Y23	Z23	X24	Y24	Z24	X25	Y25	Z25	X26	Y26	Z26	X27	Y27	Z27	X28	Y28	Z28	X29	Y29	Z29	X30	Y30	Z30	X31	Y31	Z31	X32	Y32	Z32	X33	Y33	Z33	

18	10.538214285714	792.106712264584	1006.105948046773	524.825205232248	957.722504020682	1423.024957252004	315.785289318746	1081.106954591914	1350.670716180530	460.858726924601	1030.527498878534	1433.124320341951	643.124775621195	985.385149748729	1486.949883148307	469.809793030758	1025.657451747326	936.378346690094	616.955562807839	985.133532689936	953.466308043144	344.137564384925	1021.861874141568	723.694822279939	590.122755990338	921.141937208646	630.624565377189	657.162378958501	975.720483127633	565.652491065429	573.127375167655	956.895378441072	481.952621631920	578.033522249164	1066.815255494482	779.984373790793	382.584391369453	1033.120570663369	652.396598414902	296.874848392355	1133.563500285772	595.914587141091	366.435339594643	1166.041246587877	533.400646576171	361.215521289375	1152.569506992839	460.485573393138	348.234953684596	1096.016283491249	328.320361916994	291.128445076405	1185.601061138228	232.578602065808	348.460384056284	920.940684391528	397.353842240129	586.432072371006	842.438233722213	300.542102122196	649.941307293994	871.266751145940	203.031157933597	584.209360587006	722.386607735986	43.858435759762	557.794804493808	894.905551973895	96.711021106736	590.845995247649	806.456981621513	37.296662156808	631.224996965120	1014.888600713246	41.260993707642	617.830449530963	1113.022143823819	45.109728161278	380.157519780068	1190.158414990006	56.795596054445	303.731276081925	1252.882477091785	140.160555036532	328.040544884682	1389.583112295442	123.306843877936	308.393423369759	811.477225053592	1097.388987851775	230.416892726337	760.151954449069	845.018090406683	244.501850084279	1180.032215209688	1130.890984010263	757.428289614934	1410.094572605853	1192.381734019870	668.658352766382	
19	10.549285714286	793.239015852076	1004.873091178971	523.100486655691	957.464033655299	1422.162281753936	314.355737094581	1081.184333758088	1349.751079622157	459.024644503529	1030.931519040337	1432.144151630394	641.184533317271	985.218243974286	1485.778995326416	468.389477680210	1026.466685250051	935.125736906607	615.421644925918	986.394896178052	951.865725211102	342.413573452119	1020.644304813443	722.021710649254	589.048441746991	918.893603531150	629.792624410677	656.228425196148	972.763363031381	564.213589106681	572.290572376737	953.051366381317	480.529326698811	577.121191074836	1067.464996874044	777.957071141423	381.569375034230	1032.774067901240	649.930657848811	296.471678686709	1133.261354743329	593.562705394817	365.501457097332	1165.209412661303	531.012986467392	360.702969374626	1152.006477667560	458.083845552344	347.829742241276	1095.288756986983	325.484703309290	292.325750995718	1185.848209323321	230.442386106921	349.283777282991	916.283126434564	396.261034642854	585.789754523250	836.971191892152	300.306405803065	649.676953982598	864.630536588828	202.458895952208	583.946944921941	714.563792201050	43.844463711570	557.830357403254	887.121977382867	96.689491733870	590.855670015919	798.614379653876	37.241071963644	631.261244044695	1007.013478320295	41.260321304182	617.841220971485	1114.300447056924	43.557852555078	383.367984141805	1190.213305126606	54.680552853209	305.712866428499	1253.483274186910	137.742712548790	328.695897876100	1389.691794170892	120.367072165714	307.109720009933	803.894786578897	1100.596490014578	230.626440015830	748.042927641008	849.129042476554	246.540605305228	1188.509542028555	1134.881082179354	752.883356866760	1414.568904308190	1207.548722405996	663.329563702550	
20	10.560357142857	794.475873361003	1003.426725153665	521.175191008483	957.242411900895	1421.123757114750	312.755779319357	1081.279409638666	1348.735228680431	457.083608739416	1031.185144331200	1431.031467427018	639.128223891250	984.994682537319	1484.463934987870	466.822385164952	1027.390471337268	933.719291578355	613.829116936966	987.898651402155	950.062683996386	340.597965320709	1019.749997692990	720.239710748499	587.899293583044	917.015372197675	628.806765366723	655.194252346524	970.254662226052	562.635286052010	571.369429687787	949.640587308131	478.895114254596	576.087218422751	1068.639819410218	775.900948305938	380.445705955623	1032.706886788879	647.280311718142	296.284856869765	1133.436029503928	591.162827310496	364.548719921415	1164.635702501566	528.194531966043	360.275260285415	1151.310785926850	455.124817545132	347.573262527908	1093.596866576447	322.538726858079	293.530892871245	1184.360638725452	227.582124188685	350.180532049297	911.985312490659	394.967061019421	585.037393900599	831.789061038259	299.978362329480	649.342419338019	858.127781408308	201.763911845863	583.632886105986	706.746452338908	43.805274263350	557.874180649147	879.338571329168	96.645892253800	590.845219608500	790.783503738161	37.166102403918	631.300565438300	999.145371857635	41.218637797294	617.868316465620	1112.400011093271	42.113660999350	386.417437497839	1187.130872625324	52.171060161617	307.522311587042	1251.677764130635	134.177896064397	329.403644549260	1387.182785296244	115.026396713357	305.767626302225	797.136337086726	1103.444307244178	230.912967099688	736.769980646314	852.969105801163	248.509609874452	1196.245777303458	1138.778542791715	748.404188517464	1418.077882564468	1221.595098061064	658.143878256951	
21	10.571428571429	795.793876218708	1001.783764495468	519.051407024450	957.071879493839	1419.900040177192	310.969493376161	1081.402384044645	1347.630418364478	455.036571941946	1031.287257200715	1429.806236074358	636.963471307316	984.733126818357	1483.024009235796	465.084952939744	1028.420716386815	932.167448127276	612.192519943408	989.634954527535	948.098466771424	338.718027033351	1019.207610783391	718.357386788007	586.712798600069	915.518462310469	627.664836783473	654.050759820799	968.239229009212	560.915270230504	570.372740594246	946.709996044443	477.033621076600	574.937142172243	1070.298896387980	773.799372725738	379.201093308299	1032.889000578320	644.502719649916	296.236703213852	1134.022888506047	588.716760006248	363.581856107891	1164.258879849935	525.010816814656	359.955570743027	1150.517270734988	451.720559685603	347.460600772406	1091.212897855427	319.514874592240	294.616099980619	1181.480517128618	224.126796050086	351.114854332479	908.075540126235	393.472647525947	584.169094386482	826.903668228137	299.569217975041	648.927695533022	851.765737484616	200.957208936703	583.267458749419	698.933387192419	43.767962684488	557.932738181741	871.563611632003	96.582526407193	590.814749902778	782.967439725507	37.086067267003	631.347032731243	991.294064355998	41.121781770281	617.918321845149	1107.823337013692	40.789227542062	389.100280169212	1181.534220778203	49.379552895994	309.080439258906	1247.945144363989	129.664253615617	330.207424840604	1382.608012151180	107.651705183790	304.643856959807	791.250189841975	1105.824669669851	231.223093167327	726.387771877134	856.451774745282	250.364745475640	1203.203152623919	1142.498172088846	744.041523624751	1420.666421624586	1234.489836465761	653.094814021255	
